<svg xmlns="http://www.w3.org/2000/svg" x="0" y="0" enable-background="new 0 0 16 16" version="1.1" viewBox="0 0 16 16" xml:space="preserve"><path d="M7.373 1.015 C 5.741 1.183,4.301 1.841,3.158 2.940 C 1.701 4.340,0.929 6.227,0.996 8.227 C 1.020 8.972,1.113 9.495,1.348 10.208 C 1.678 11.211,2.210 12.089,2.954 12.856 C 3.567 13.489,4.131 13.904,4.893 14.282 C 5.819 14.741,6.738 14.971,7.773 15.005 C 8.954 15.043,10.028 14.809,11.107 14.280 C 12.467 13.612,13.612 12.467,14.280 11.107 C 14.508 10.642,14.633 10.314,14.762 9.844 C 15.097 8.624,15.097 7.376,14.762 6.156 C 14.633 5.686,14.508 5.358,14.279 4.891 C 13.695 3.700,12.750 2.681,11.573 1.974 C 10.800 1.510,9.943 1.205,9.023 1.067 C 8.597 1.002,7.750 0.976,7.373 1.015 M8.763 2.041 C 9.189 2.097,9.495 2.168,9.913 2.307 C 12.085 3.031,13.659 4.948,13.959 7.237 C 14.012 7.642,14.012 8.358,13.958 8.770 C 13.880 9.376,13.690 10.016,13.426 10.571 C 13.199 11.046,12.834 11.601,12.532 11.929 L 12.408 12.064 12.158 11.802 C 11.599 11.217,10.803 10.685,10.080 10.412 C 9.970 10.370,9.875 10.333,9.869 10.328 C 9.863 10.324,9.966 10.209,10.097 10.074 C 10.481 9.675,10.721 9.258,10.854 8.754 C 11.163 7.583,10.726 6.339,9.747 5.602 C 9.489 5.408,9.029 5.188,8.707 5.105 C 8.338 5.009,7.846 4.989,7.464 5.052 C 6.507 5.212,5.692 5.815,5.260 6.680 C 5.154 6.892,5.026 7.298,4.986 7.553 C 4.934 7.877,4.966 8.459,5.052 8.773 C 5.191 9.280,5.505 9.806,5.878 10.154 L 6.051 10.316 5.859 10.388 C 5.611 10.481,5.101 10.735,4.864 10.882 C 4.526 11.093,4.176 11.370,3.851 11.686 L 3.529 11.998 3.437 11.899 C 3.077 11.515,2.634 10.786,2.411 10.213 C 2.136 9.508,2.026 8.955,2.007 8.193 C 1.986 7.370,2.066 6.807,2.306 6.086 C 3.025 3.927,4.938 2.351,7.213 2.042 C 7.586 1.991,8.380 1.991,8.763 2.041 M8.399 6.057 C 8.738 6.130,9.115 6.341,9.373 6.603 C 10.162 7.405,10.129 8.727,9.301 9.479 C 8.721 10.006,7.854 10.147,7.139 9.830 C 6.614 9.598,6.171 9.075,6.024 8.514 C 5.955 8.251,5.948 7.799,6.010 7.541 C 6.259 6.490,7.326 5.828,8.399 6.057 M8.893 11.093 C 9.881 11.303,10.776 11.797,11.436 12.494 C 11.556 12.620,11.653 12.733,11.653 12.744 C 11.653 12.755,11.560 12.832,11.447 12.913 C 10.367 13.690,8.923 14.100,7.613 14.001 C 6.742 13.935,6.033 13.740,5.277 13.357 C 4.984 13.208,4.507 12.908,4.333 12.763 L 4.253 12.697 4.480 12.466 C 5.141 11.794,5.953 11.338,6.880 11.121 C 7.259 11.032,7.456 11.016,8.053 11.026 C 8.511 11.034,8.680 11.047,8.893 11.093 " fill="#231f20" stroke="none" fill-rule="evenodd"></path></svg>