<svg width="51" height="51" viewBox="0 0 51 51" fill="none" xmlns="http://www.w3.org/2000/svg">
<path d="M50.7807 35.4304C50.8938 35.284 50.9916 35.0867 50.9982 34.8347C51.0184 34.0545 50.912 31.3438 48.696 29.2223C47.2147 27.8042 45.5325 27.3404 44.3647 27.2025C44.3089 25.9799 43.9286 23.9777 42.2279 22.396C40.7034 20.9783 38.9195 20.6473 37.776 20.6017C37.6327 19.2853 37.1044 17.204 35.3044 15.4718C33.6202 13.8511 31.6565 13.3616 30.3987 13.2244C30.3505 12.004 29.9767 10.0594 28.3037 8.47141C26.7619 7.00795 24.9479 6.67157 23.7929 6.62705C23.6491 5.46819 23.1732 3.71398 21.6888 2.21487C19.5728 0.0776553 16.9243 -0.019065 16.1636 0.00205212C15.7496 0.0135071 15.3234 0.310541 15.2205 0.761371L6.89002 34.386L2.01098 39.265C-0.67 41.946 -0.67 46.3083 2.01098 48.9893C3.35151 50.3298 5.1123 51 6.87319 51C8.63408 51 10.3948 50.3297 11.7353 48.9893L16.6143 44.1102L50.2388 35.7797C50.4188 35.7292 50.625 35.6325 50.7807 35.4304ZM48.9601 34.0355L23.2677 40.4008L43.5986 29.1514C44.3258 29.1702 45.9565 29.3691 47.3126 30.6674C48.4929 31.7973 48.8556 33.1572 48.9601 34.0355ZM35.825 21.4263L29.0874 26.808C28.6558 27.1528 28.5854 27.7822 28.9301 28.2139C29.1276 28.4612 29.4186 28.5899 29.7123 28.5899C29.9312 28.5899 30.1517 28.5184 30.336 28.3712L37.5699 22.5931C38.3665 22.6017 39.7216 22.7971 40.8656 23.861C42.2069 25.1084 42.3831 26.7318 42.3771 27.541L16.2882 41.9762L14.9627 40.6507L23.3466 33.954C23.7782 33.6092 23.8486 32.9798 23.5039 32.5481C23.1591 32.1164 22.5297 32.046 22.098 32.3908L13.5393 39.2272L11.7731 37.4609L29.5741 15.1752C30.3573 15.1802 32.3072 15.364 33.9171 16.9134C35.6206 18.5525 35.8196 20.608 35.825 21.4263ZM28.4033 13.4354L10.3496 36.0375L9.02415 34.712L23.4617 8.61913C24.2392 8.60737 25.7056 8.76346 26.9265 9.92231C28.1694 11.1021 28.3892 12.6008 28.4033 13.4354ZM21.8493 7.40081L10.5996 27.7324L16.9651 2.03906C17.8237 2.14076 19.1476 2.49158 20.2672 3.62234C21.6271 4.99565 21.8315 6.66181 21.8493 7.40081ZM10.3207 47.5746C9.39977 48.4955 8.17548 49.0026 6.87319 49.0026C5.5709 49.0026 4.34661 48.4955 3.42572 47.5746C2.50484 46.6538 1.99773 45.4294 1.99773 44.1271C1.99773 42.8248 2.50484 41.6006 3.42572 40.6797L4.74255 39.3628L11.6375 46.2578L10.3207 47.5746ZM6.1572 37.9482L7.79407 36.3112L14.6891 43.2062L13.0521 44.843L6.1572 37.9482Z" fill="#3056C6"/>
<path d="M26.2104 31.3718C26.7629 31.3718 27.2107 30.9239 27.2107 30.3715C27.2107 29.8191 26.7629 29.3712 26.2104 29.3712C25.658 29.3712 25.2101 29.8191 25.2101 30.3715C25.2101 30.9239 25.658 31.3718 26.2104 31.3718Z" fill="#3056C6"/>
</svg>
