<svg width="41" height="47" viewBox="0 0 41 47" fill="none" xmlns="http://www.w3.org/2000/svg">
<path d="M37.6708 38.3102V35.5898C37.6708 35.314 37.5082 35.0767 37.2739 34.9669C37.2729 34.9664 37.2722 34.9657 37.2712 34.9652C36.7309 34.7157 36.2203 34.2265 35.7533 33.5111C35.5456 33.1927 35.119 33.103 34.8005 33.3108C34.4821 33.5186 34.3924 33.9452 34.6002 34.2637C34.75 34.4932 34.9055 34.7057 35.0663 34.9014H19.3354C20.5279 33.4475 21.4477 31.0368 22.0798 27.6948C22.6652 24.5996 22.8737 21.3581 22.9158 19.5035H31.4899C31.5513 22.3782 31.9909 27.7988 33.3536 31.6425C33.4537 31.9248 33.7191 32.1012 34.0025 32.1012C34.0789 32.1012 34.1566 32.0884 34.2326 32.0614C34.591 31.9344 34.7785 31.5408 34.6515 31.1824C33.3373 27.4755 32.9195 22.1912 32.8652 19.4239C34.237 19.1078 35.2633 17.8774 35.2633 16.4108C35.2633 15.6132 34.9596 14.8851 34.462 14.336C35.9672 13.7015 37.0579 12.2829 37.2153 10.5508L38.102 0.750558C38.1194 0.557962 38.055 0.366925 37.9246 0.224176C37.7944 0.081335 37.6099 0 37.4166 0H34.043C33.6979 0 33.4062 0.255388 33.3606 0.597436L32.7871 4.89313C32.7272 5.3414 32.341 5.6795 31.8887 5.6795C31.3891 5.6795 30.9826 5.27291 30.9826 4.77324V0.688502C30.9826 0.308265 30.6744 0 30.2941 0H24.1133C23.733 0 23.4248 0.308265 23.4248 0.688502V4.77324C23.4248 5.27291 23.0183 5.6795 22.5186 5.6795C22.0664 5.6795 21.6802 5.3414 21.6203 4.89313L21.0469 0.597436C21.0011 0.255388 20.7095 0 20.3644 0H16.9899C16.7965 0 16.6121 0.081335 16.4816 0.224176C16.3512 0.366925 16.2867 0.558053 16.3043 0.75065L17.1919 10.5507C17.3483 12.2828 18.4389 13.7015 19.9446 14.336C19.447 14.885 19.1433 15.6131 19.1433 16.4108C19.1433 17.8769 20.1691 19.107 21.5404 19.4235C21.5026 21.2134 21.3021 24.3975 20.7269 27.4388C20.1382 30.5515 19.3046 32.785 18.2809 34.0273C17.8125 33.3483 17.4576 32.5469 17.2246 31.6334C17.0312 30.8753 16.9211 30.0513 16.8878 29.132C18.1148 28.8192 19.0248 27.7051 19.0248 26.3822C19.0248 25.0574 18.1121 23.942 16.8825 23.6312C17.8629 22.446 18.4197 20.941 18.4197 19.3736C18.4197 15.6942 15.4263 12.7007 11.7468 12.7007C10.1006 12.7007 8.51989 13.3052 7.29564 14.4032C7.01253 14.657 6.98884 15.0923 7.24276 15.3754C7.49668 15.6585 7.932 15.6821 8.21502 15.4283C9.18626 14.5573 10.4405 14.0777 11.7468 14.0777C14.6671 14.0777 17.0428 16.4534 17.0428 19.3736C17.0428 21.0018 16.2848 22.5443 15.0072 23.5447H8.48739C7.20981 22.5443 6.45181 21.0019 6.45181 19.3736C6.45181 18.6945 6.57859 18.033 6.82856 17.4076C6.96975 17.0546 6.7979 16.6539 6.44483 16.5127C6.09159 16.3716 5.69115 16.5434 5.54987 16.8965C5.23463 17.6851 5.07472 18.5186 5.07472 19.3736C5.07472 20.9409 5.63158 22.4459 6.61191 23.6311C5.38225 23.942 4.46948 25.0573 4.46948 26.3822C4.46948 27.7051 5.37958 28.8193 6.60649 29.132C6.47403 32.6256 5.1678 34.9698 2.71738 36.1029C2.71573 36.1036 2.71462 36.1047 2.71306 36.1056C2.47971 36.2158 2.31786 36.4526 2.31786 36.7278V39.1013C0.990983 39.4135 0 40.6064 0 42.0271V46.3113C0 46.6915 0.308265 46.9998 0.688502 46.9998H39.5753C39.9556 46.9998 40.2638 46.6915 40.2638 46.3113V41.518C40.2636 39.9451 39.1506 38.6275 37.6708 38.3102ZM18.5633 10.4266L17.7436 1.377H19.7617L20.2554 5.07536C20.4063 6.20478 21.3792 7.0565 22.5186 7.0565C23.7775 7.0565 24.8018 6.03228 24.8018 4.77324V1.377H29.6055V4.77324C29.6055 6.03228 30.6297 7.0565 31.8886 7.0565C33.0281 7.0565 34.0011 6.20478 34.1518 5.07536L34.6457 1.377H36.663L35.844 10.4265C35.6944 12.0748 34.3337 13.3179 32.6789 13.3179H21.7285C20.0729 13.3178 18.7122 12.0749 18.5633 10.4266ZM20.5203 16.4108C20.5203 15.4648 21.2899 14.6951 22.2359 14.6951H32.1708C33.1169 14.6951 33.8865 15.4648 33.8865 16.4108C33.8865 17.3559 33.1181 18.1249 32.1732 18.1263C32.1722 18.1263 32.1713 18.1261 32.1704 18.1261C32.1685 18.1261 32.1669 18.1264 32.1651 18.1264H22.2359C21.2899 18.1265 20.5203 17.3568 20.5203 16.4108ZM15.2996 39.021H3.69478V37.4164H16.736V38.3102C16.1962 38.426 15.7055 38.675 15.2996 39.021ZM18.113 36.2783H36.2938V38.237H18.113V36.2783ZM5.84648 26.3824C5.84648 25.5771 6.50166 24.9219 7.30693 24.9219H16.1872C16.9925 24.9219 17.6477 25.5771 17.6477 26.3824C17.6477 27.1876 16.9925 27.8428 16.1872 27.8428H7.30693C6.50166 27.8428 5.84648 27.1876 5.84648 26.3824ZM7.98111 29.2198H15.5141C15.6074 31.5505 16.1808 33.4623 17.2248 34.92C17.1951 34.9352 17.1654 34.9511 17.1355 34.965C17.1337 34.9658 17.1324 34.9671 17.1307 34.9679C16.8976 35.0782 16.7359 35.3149 16.7359 35.5898V36.0394H5.2865C6.95974 34.5054 7.86296 32.2226 7.98111 29.2198ZM1.37691 42.0273C1.37691 41.1289 2.10783 40.398 3.00627 40.398H14.3404C14.213 40.7477 14.1433 41.125 14.1433 41.5183V45.6231H1.37691V42.0273ZM38.8866 45.623H15.5202V41.5182C15.5202 40.4682 16.3745 39.614 17.4245 39.614H36.9823C38.0323 39.614 38.8866 40.4682 38.8866 41.5182V45.623Z" fill="#3056C6"/>
</svg>
