<svg width="48" height="48" viewBox="0 0 48 48" fill="none" xmlns="http://www.w3.org/2000/svg">
<path d="M24 0C10.7453 0 0 10.7453 0 24C0 37.2547 10.7453 48 24 48C37.2547 48 48 37.2547 48 24C47.9852 10.7516 37.2484 0.0148438 24 0ZM42.5863 11.5121L40.923 18.5824L32.1602 21.5031L24.8 15.616V6.94141L33.2 3.58164C37.0031 5.30469 40.2523 8.05 42.5863 11.5121ZM42.7199 36.2762L34.7863 37.5289L30.4664 31.8223L32.6672 23.0223L41.3328 20.1344L46.2969 26.091C45.9586 29.7281 44.7301 33.2262 42.7199 36.2762ZM13.2488 37.5344L5.28008 36.2762C3.26992 33.2254 2.0418 29.7266 1.70391 26.0887L6.66406 20.132L15.3297 23.0199L17.5305 31.8246L13.2488 37.5344ZM1.60703 23.7016C1.64961 20.1328 2.55 16.6262 4.23203 13.4785L5.52969 18.9984L1.60703 23.7016ZM19.0246 31.2L16.9023 22.7023L24 17.0246L31.0992 22.7047L28.9754 31.2H19.0246ZM42.4703 18.9953L43.768 13.4754C45.45 16.623 46.3504 20.1293 46.393 23.6984L42.4703 18.9953ZM31.0184 2.73203L24 5.53906L16.9441 2.74492C21.5113 1.22266 26.4484 1.21836 31.0184 2.73203ZM14.7617 3.6L23.2 6.94414V15.616L15.8398 21.5031L7.07695 18.5824L5.41367 11.5121C7.73984 8.0625 10.975 5.32422 14.7617 3.6ZM6.6168 38.107L13.1199 39.1344L17.0527 45.2945C12.9566 43.9492 9.33398 41.4543 6.6168 38.107ZM19.3465 45.9105L14.5727 38.4367L18.8 32.8H29.2L33.4879 38.4641L29.3281 45.7543C26.0559 46.5602 22.6438 46.6148 19.3473 45.9145L19.3465 45.9105ZM31.5504 45.0871L34.9602 39.1199L41.3863 38.1063C38.8047 41.2855 35.4035 43.6992 31.5504 45.0871Z" fill="white"/>
</svg>
