<svg width="52" height="46" viewBox="0 0 52 46" fill="none" xmlns="http://www.w3.org/2000/svg">
<path d="M44.3851 30.1479H43.9508C43.4836 30.1484 43.0267 30.011 42.6372 29.753C42.2477 29.495 41.943 29.1278 41.7612 28.6975L36.7592 16.9071C36.7559 16.8999 36.7553 16.8921 36.752 16.8843C36.7486 16.8765 36.7436 16.8704 36.7403 16.8632L34.8494 12.4012C34.7965 12.2764 34.718 12.1641 34.6192 12.0714C34.5203 11.9787 34.4032 11.9076 34.2753 11.8628C34.1474 11.818 34.0115 11.8004 33.8764 11.8111C33.7413 11.8218 33.61 11.8607 33.4907 11.9251C31.9537 12.7452 30.1944 13.0513 28.4707 12.7986C26.747 12.5459 25.1496 11.7476 23.9127 10.5208L22.6742 9.28172C22.3704 8.99231 22.1511 8.62569 22.0398 8.22117C21.9285 7.81664 21.9294 7.38944 22.0424 6.98538C22.3726 5.93641 22.4082 4.81689 22.1455 3.74904C21.8827 2.68118 21.3317 1.70603 20.5525 0.930022C20.3695 0.749946 20.1228 0.649479 19.8661 0.650521C19.6094 0.651562 19.3636 0.754029 19.1821 0.935584L13.0305 7.08938L8.12585 11.9941L6.72379 13.3961C6.41317 13.7064 6.16675 14.0748 5.99862 14.4804C5.83049 14.886 5.74396 15.3207 5.74396 15.7598C5.74396 16.1988 5.83049 16.6335 5.99862 17.0391C6.16675 17.4447 6.41317 17.8131 6.72379 18.1234L31.1605 42.5606C31.3418 42.7419 31.532 42.9115 31.7266 43.0739H8.81492C8.55679 43.0739 8.30924 43.1765 8.12672 43.359C7.94419 43.5415 7.84165 43.7891 7.84165 44.0472C7.84165 44.3053 7.94419 44.5529 8.12672 44.7354C8.30924 44.9179 8.55679 45.0205 8.81492 45.0205H46.672C48.0827 45.0188 49.4352 44.458 50.4331 43.4608C51.431 42.4637 51.9928 41.1116 51.9955 39.7009L51.9999 37.7666V37.7633C51.9947 35.7453 51.1907 33.8114 49.7638 32.3844C48.3369 30.9574 46.4031 30.1533 44.3851 30.1479ZM19.7928 3.0801C20.0866 3.57484 20.2734 4.12566 20.3414 4.69704C20.4093 5.26842 20.3567 5.8477 20.1871 6.39753C19.9624 7.14063 19.9469 7.93131 20.1425 8.6826C20.338 9.4339 20.737 10.1167 21.2955 10.656L22.5346 11.8951C23.9402 13.2887 25.7236 14.2397 27.6641 14.6302C29.6046 15.0208 31.617 14.8338 33.4524 14.0924L34.5791 16.7486L32.7638 17.5172C32.5261 17.6179 32.3382 17.8088 32.2413 18.0481C32.1444 18.2873 32.1465 18.5553 32.2472 18.793C32.3478 19.0307 32.5388 19.2187 32.7781 19.3156C33.0173 19.4124 33.2853 19.4103 33.523 19.3097L35.3394 18.5405L36.5017 21.2795L34.6831 22.0493C34.5654 22.0991 34.4587 22.1717 34.369 22.2628C34.2794 22.354 34.2086 22.4619 34.1606 22.5803C34.1127 22.6988 34.0885 22.8256 34.0896 22.9534C34.0906 23.0813 34.1168 23.2076 34.1667 23.3253C34.2166 23.443 34.2892 23.5498 34.3803 23.6394C34.4714 23.729 34.5793 23.7999 34.6978 23.8478C34.8163 23.8958 34.9431 23.9199 35.0709 23.9189C35.1987 23.9178 35.3251 23.8916 35.4428 23.8417L37.262 23.0715L38.4238 25.8105L36.6002 26.5813C36.4825 26.6312 36.3757 26.7038 36.2861 26.7949C36.1964 26.886 36.1256 26.9939 36.0777 27.1124C36.0297 27.2309 36.0056 27.3577 36.0066 27.4855C36.0077 27.6133 36.0339 27.7397 36.0838 27.8574C36.1337 27.9751 36.2062 28.0818 36.2974 28.1715C36.3885 28.2611 36.4964 28.3319 36.6149 28.3799C36.7334 28.4278 36.8601 28.452 36.988 28.4509C37.1158 28.4499 37.2422 28.4237 37.3599 28.3738L39.1807 27.6019L39.9676 29.4577C40.2985 30.2402 40.8527 30.9076 41.561 31.3766C42.2693 31.8456 43.1002 32.0953 43.9497 32.0944H44.3829C45.8851 32.0984 47.3247 32.6967 48.3872 33.7587C49.4497 34.8206 50.0487 36.2599 50.0534 37.7621V38.7237H38.9026C38.0552 38.7256 37.2159 38.5594 36.4331 38.2349C35.6503 37.9103 34.9396 37.4338 34.3422 36.8328L17.1338 19.6272L17.2334 19.5277C18.5059 18.2525 19.2206 16.5246 19.2206 14.7231C19.2206 12.9216 18.5059 11.1937 17.2334 9.91851L15.0938 7.77845L19.7928 3.0801ZM13.7174 9.15436L15.8574 11.2939C16.7651 12.204 17.2747 13.4369 17.2747 14.7223C17.2747 16.0076 16.7651 17.2405 15.8574 18.1506L15.7573 18.2502L10.1892 12.6831L13.7174 9.15436ZM46.672 43.0739H37.0979C36.2505 43.0759 35.4111 42.9097 34.6283 42.5852C33.8456 42.2606 33.1349 41.784 32.5375 41.183L8.10026 16.7458C7.97065 16.6163 7.86782 16.4625 7.79767 16.2932C7.72752 16.1239 7.69141 15.9424 7.69141 15.7592C7.69141 15.576 7.72752 15.3945 7.79767 15.2252C7.86782 15.0559 7.97065 14.9021 8.10026 14.7726L8.81492 14.0596L32.9635 38.2098C33.7415 38.9924 34.6671 39.6128 35.6865 40.0351C36.706 40.4574 37.7991 40.6733 38.9026 40.6703H49.906C49.6959 41.3647 49.2682 41.9732 48.6859 42.406C48.1035 42.8388 47.3976 43.0729 46.672 43.0739Z" fill="#3056C6"/>
<path d="M1.91876 5.2185H8.64261C8.90073 5.2185 9.14829 5.11596 9.33081 4.93344C9.51333 4.75091 9.61587 4.50336 9.61587 4.24523C9.61587 3.98711 9.51333 3.73956 9.33081 3.55703C9.14829 3.37451 8.90073 3.27197 8.64261 3.27197H1.91876C1.66063 3.27197 1.41308 3.37451 1.23056 3.55703C1.04803 3.73956 0.945496 3.98711 0.945496 4.24523C0.945496 4.50336 1.04803 4.75091 1.23056 4.93344C1.41308 5.11596 1.66063 5.2185 1.91876 5.2185Z" fill="#3056C6"/>
<path d="M19.0965 34.3746C19.0965 34.1165 18.994 33.869 18.8115 33.6864C18.629 33.5039 18.3814 33.4014 18.1233 33.4014H6.79284C6.53472 33.4014 6.28716 33.5039 6.10464 33.6864C5.92212 33.869 5.81958 34.1165 5.81958 34.3746C5.81958 34.6328 5.92212 34.8803 6.10464 35.0628C6.28716 35.2454 6.53472 35.3479 6.79284 35.3479H18.1233C18.3814 35.3479 18.629 35.2454 18.8115 35.0628C18.994 34.8803 19.0965 34.6328 19.0965 34.3746Z" fill="#3056C6"/>
<path d="M7.87397 22.3707C7.87397 22.1126 7.77143 21.865 7.58891 21.6825C7.40638 21.5 7.15883 21.3975 6.90071 21.3975H0.973262C0.715137 21.3975 0.467584 21.5 0.285062 21.6825C0.10254 21.865 0 22.1126 0 22.3707C0 22.6288 0.10254 22.8764 0.285062 23.0589C0.467584 23.2414 0.715137 23.344 0.973262 23.344H6.90071C7.15883 23.344 7.40638 23.2414 7.58891 23.0589C7.77143 22.8764 7.87397 22.6288 7.87397 22.3707Z" fill="#3056C6"/>
</svg>
