<svg width="57" height="57" viewBox="0 0 57 57" fill="none" xmlns="http://www.w3.org/2000/svg">
<path d="M3.5625 39.0277C3.95021 39.0251 4.3375 39.0537 4.72067 39.1129C4.75154 39.1217 4.78278 39.1259 4.81424 39.1322C5.6333 39.2972 6.41278 39.6189 7.10992 40.0794C8.5191 41.0142 10.1803 41.4961 11.871 41.4606C13.5442 41.5004 15.1897 41.0278 16.5868 40.1061C16.6024 40.098 16.6175 40.0899 16.6331 40.0806C17.6749 39.3651 18.9159 38.9966 20.1794 39.0277C21.446 38.9992 22.6898 39.3669 23.7373 40.0794C25.142 41.0151 26.7999 41.4972 28.4873 41.4606C30.1779 41.4929 31.8385 41.0117 33.25 40.0806C34.2918 39.3651 35.5328 38.9966 36.7962 39.0277C38.0705 39.0004 39.3213 39.3722 40.3738 40.0911C41.7797 41.0174 43.4337 41.495 45.1169 41.4606C46.2512 41.4856 47.3783 41.2754 48.4272 40.8431C48.9269 40.6224 49.4109 40.3678 49.876 40.0811C50.9291 39.3775 52.1711 39.0102 53.4375 39.0277C53.7524 39.0277 54.0545 38.9025 54.2772 38.6798C54.4999 38.4571 54.625 38.1551 54.625 37.8402C54.625 37.5252 54.4999 37.2232 54.2772 37.0005C54.0545 36.7778 53.7524 36.6527 53.4375 36.6527C52.9758 36.6471 52.5144 36.6797 52.0581 36.75C50.8512 36.93 49.6973 37.3678 48.6748 38.0337C48.2972 38.2675 47.9044 38.4759 47.4992 38.6576C46.744 38.9658 45.9325 39.1115 45.1173 39.0851C43.8393 39.1173 42.5841 38.7434 41.5321 38.0171C40.5357 37.3739 39.4163 36.9452 38.2451 36.7583L28.4601 22.4686L40.9984 16.1925C41.55 15.917 42.0343 15.5238 42.4172 15.0406C42.8001 14.5574 43.0723 13.9961 43.2146 13.3962C43.3569 12.7964 43.3658 12.1726 43.2406 11.5689C43.1155 10.9653 42.8593 10.3964 42.4903 9.90256C41.8985 9.13887 41.0659 8.59763 40.1277 8.36669C39.1896 8.13575 38.2009 8.22868 37.3222 8.63039L19.9985 16.8304C19.3964 17.1157 18.8598 17.5223 18.4223 18.0247C17.9848 18.5271 17.6559 19.1145 17.4561 19.75C17.2563 20.3856 17.1899 21.0555 17.2612 21.7179C17.3326 22.3803 17.54 23.0207 17.8705 23.5992L20.173 27.6939L4.81317 36.7347C4.39846 36.6807 3.98071 36.6533 3.5625 36.6527C3.24756 36.6527 2.94551 36.7778 2.72281 37.0005C2.50011 37.2232 2.375 37.5252 2.375 37.8402C2.375 38.1551 2.50011 38.4571 2.72281 38.6798C2.94551 38.9025 3.24756 39.0277 3.5625 39.0277ZM21.3837 29.7363C21.9275 29.4152 22.3229 28.8928 22.4841 28.2821C22.6453 27.6715 22.5593 27.0219 22.2447 26.4742L19.9312 22.4188C19.7634 22.1245 19.6582 21.7987 19.6222 21.4618C19.5862 21.125 19.6202 20.7843 19.722 20.4612C19.8238 20.138 19.9912 19.8394 20.2138 19.584C20.4364 19.3286 20.7093 19.1219 21.0155 18.977L38.3357 10.7793C38.6477 10.6285 38.9962 10.5697 39.3404 10.6097C39.6846 10.6497 40.0103 10.787 40.2794 11.0053C40.5485 11.2237 40.7498 11.5142 40.8598 11.8428C40.9699 12.1714 40.984 12.5245 40.9007 12.8609C40.8403 13.1209 40.7225 13.3642 40.5559 13.5728C40.3894 13.7815 40.1783 13.9503 39.9381 14.0669L27.4052 20.3407C27.0974 20.4913 26.8256 20.7064 26.6082 20.9713C26.3908 21.2362 26.2329 21.5448 26.1453 21.8761C26.0571 22.2111 26.042 22.5612 26.101 22.9025C26.16 23.2439 26.2918 23.5686 26.4874 23.8545L35.3601 36.7572C34.1775 36.9437 33.0479 37.3788 32.0456 38.0337C31.0006 38.7513 29.7551 39.1196 28.4878 39.0856C27.2139 39.116 25.9631 38.7421 24.9149 38.0176C23.5107 37.0944 21.8596 36.6185 20.1794 36.6527C18.5021 36.6161 16.8536 37.0925 15.4544 38.0183C15.4363 38.0277 15.4178 38.038 15.3999 38.0484C14.3629 38.7587 13.1273 39.1217 11.871 39.0853C10.6027 39.1157 9.35698 38.7465 8.31013 38.0299C8.14388 37.9324 7.97109 37.8333 7.79428 37.7346L21.3837 29.7363Z" fill="#3056C6"/>
<path d="M53.4375 43.9515C51.748 43.917 50.0881 44.398 48.6788 45.3304C47.619 46.0184 46.3825 46.3846 45.1189 46.3846C43.8554 46.3846 42.6189 46.0184 41.5591 45.3304C40.1356 44.4297 38.4857 43.9515 36.8012 43.9515C35.1167 43.9515 33.4668 44.4297 32.0434 45.3304C30.9977 46.0462 29.7535 46.4149 28.4867 46.3846C27.2212 46.4148 25.9783 46.046 24.9341 45.3304C23.5269 44.398 21.8688 43.9169 20.1811 43.9515C18.4926 43.9169 16.8337 44.398 15.4256 45.3304C14.3806 46.0462 13.137 46.415 11.8707 46.3846C10.6047 46.4149 9.36114 46.0461 8.3163 45.3304C6.90877 44.3981 5.25045 43.9171 3.5625 43.9515C3.24756 43.9515 2.94551 44.0766 2.72281 44.2993C2.50011 44.522 2.375 44.8241 2.375 45.139C2.375 45.454 2.50011 45.756 2.72281 45.9787C2.94551 46.2014 3.24756 46.3265 3.5625 46.3265C4.82844 46.2965 6.07175 46.6655 7.11633 47.3813C8.52412 48.3137 10.1827 48.7947 11.871 48.7602C13.5594 48.7947 15.2182 48.3137 16.6262 47.3813C17.6712 46.6655 18.9149 46.2967 20.1811 46.3271C21.4466 46.2968 22.6895 46.6657 23.7337 47.3813C25.1409 48.3137 26.799 48.7948 28.4867 48.7602C30.1756 48.7948 31.835 48.3138 33.2436 47.3813C34.3028 46.6933 35.5387 46.3271 36.8018 46.3271C38.0648 46.3271 39.3007 46.6933 40.3599 47.3813C41.7838 48.282 43.434 48.7602 45.1189 48.7602C46.8037 48.7602 48.454 48.282 49.8779 47.3813C50.9246 46.6654 52.1697 46.2964 53.4375 46.3265C53.7524 46.3265 54.0545 46.2014 54.2772 45.9787C54.4999 45.756 54.625 45.454 54.625 45.139C54.625 44.8241 54.4999 44.522 54.2772 44.2993C54.0545 44.0766 53.7524 43.9515 53.4375 43.9515Z" fill="#3056C6"/>
<path d="M36.4362 26.8928C36.4362 28.5713 36.934 30.212 37.8665 31.6075C38.7991 33.003 40.1245 34.0906 41.6752 34.7329C43.2259 35.3751 44.9322 35.5431 46.5783 35.2156C48.2245 34.8881 49.7365 34.0798 50.9233 32.8929C52.1101 31.706 52.9183 30.1939 53.2456 28.5477C53.573 26.9015 53.4049 25.1952 52.7625 23.6446C52.1201 22.094 51.0324 20.7687 49.6368 19.8362C48.2412 18.9038 46.6005 18.4062 44.922 18.4063C42.6721 18.4086 40.5149 19.3035 38.924 20.8946C37.3331 22.4856 36.4384 24.6429 36.4362 26.8928ZM44.922 20.7812C46.1306 20.7813 47.3121 21.1396 48.317 21.8111C49.3219 22.4825 50.1052 23.4369 50.5677 24.5535C51.0302 25.67 51.1513 26.8987 50.9155 28.0841C50.6798 29.2695 50.0978 30.3583 49.2433 31.213C48.3887 32.0676 47.2999 32.6497 46.1146 32.8855C44.9292 33.1214 43.7005 33.0004 42.5839 32.538C41.4673 32.0756 40.5129 31.2924 39.8413 30.2876C39.1698 29.2827 38.8113 28.1013 38.8112 26.8927C38.813 25.2725 39.4573 23.7192 40.6029 22.5734C41.7485 21.4277 43.3018 20.7832 44.922 20.7812Z" fill="#3056C6"/>
</svg>
