<svg width="48" height="48" viewBox="0 0 48 48" fill="none" xmlns="http://www.w3.org/2000/svg">
<g clip-path="url(#clip0_12_14840)">
<path d="M24 0C10.7661 0 0 10.7661 0 24C0 37.2334 10.7661 48 24 48C37.2334 48 48 37.2334 48 24C48 10.7661 37.2334 0 24 0ZM24 44.6589C12.6086 44.6589 3.34106 35.3914 3.34106 24C3.34106 12.6086 12.6086 3.34106 24 3.34106C35.3919 3.34106 44.6589 12.6081 44.6589 23.9994C44.6589 35.3908 35.3919 44.6589 24 44.6589Z" fill="#3056C6"/>
<path d="M32.9796 17.5044C29.8374 13.1839 28.8562 7.75855 30.2862 2.61936L27.0682 1.72339C25.3626 7.85089 26.532 14.3192 30.2701 19.4595C33.9525 24.6025 39.7409 27.698 46.1518 27.9525L46.2844 24.6131C40.9108 24.4004 36.064 21.8127 32.9796 17.5044Z" fill="#3056C6"/>
<path d="M16.771 29.2478C13.2083 24.4004 7.75515 21.3327 1.81084 20.8322L1.53015 24.1616C6.51334 24.5815 11.0873 27.1563 14.0781 31.2263C17.0339 35.2478 18.0874 40.3953 16.9687 45.349L20.2279 46.0851C21.5598 40.1863 20.2997 34.0494 16.771 29.2478Z" fill="#3056C6"/>
</g>
<defs>
<clipPath id="clip0_12_14840">
<rect width="48" height="48" fill="white"/>
</clipPath>
</defs>
</svg>
