<svg width="25" height="25" viewBox="0 0 25 25" fill="none" xmlns="http://www.w3.org/2000/svg">
<path d="M24.3061 18.8C23.3874 17.8812 21.1811 16.5 20.0936 15.9812C18.8311 15.375 18.3686 15.3875 17.4749 16.0312C16.7311 16.5687 16.2499 17.0687 15.3936 16.8812C14.5374 16.7 12.8499 15.4187 11.2124 13.7875C9.57489 12.15 8.29989 10.4625 8.11864 9.60624C7.93739 8.74374 8.43739 8.26874 8.96864 7.52499C9.61239 6.63124 9.63114 6.16874 9.01864 4.90624C8.49989 3.81249 7.12489 1.61249 6.19989 0.693742C5.28114 -0.225009 5.07489 -0.0250084 4.56864 0.156242C4.56864 0.156242 3.81864 0.456241 3.07489 0.949992C2.15614 1.56249 1.64364 2.07499 1.28114 2.84374C0.92489 3.61249 0.512391 5.04374 2.61239 8.78124C4.30614 11.8 5.96864 14.0875 8.43739 16.55L8.44364 16.5562L8.44989 16.5625C10.9186 19.0312 13.1999 20.6937 16.2186 22.3875C19.9561 24.4875 21.3874 24.075 22.1561 23.7187C22.9249 23.3625 23.4374 22.85 24.0499 21.925C24.5436 21.1812 24.8436 20.4312 24.8436 20.4312C25.0249 19.925 25.2311 19.7187 24.3061 18.8Z" fill="#3056C6"/>
</svg>
